<svg xmlns="http://www.w3.org/2000/svg" xmlns:xlink="http://www.w3.org/1999/xlink" width="2025.786" height="1927.845" viewBox="0 0 2025.786 1927.845">
  <defs>
    <linearGradient id="linear-gradient" x1="0.556" y1="0.324" x2="0.292" y2="0.721" gradientUnits="objectBoundingBox">
      <stop offset="0" stop-color="#7bd5f5"/>
      <stop offset="1" stop-color="#787ff6" stop-opacity="0.706"/>
    </linearGradient>
    <filter id="Path_17" x="0" y="0" width="2025.786" height="1927.845" filterUnits="userSpaceOnUse">
      <feOffset dy="8" input="SourceAlpha"/>
      <feGaussianBlur stdDeviation="3" result="blur"/>
      <feFlood flood-opacity="0.161"/>
      <feComposite operator="in" in2="blur"/>
      <feComposite in="SourceGraphic"/>
    </filter>
    <linearGradient id="linear-gradient-2" x1="0.31" y1="0.965" x2="0.458" y2="0.229" gradientUnits="objectBoundingBox">
      <stop offset="0" stop-color="#939bee" stop-opacity="0"/>
      <stop offset="1" stop-color="#959ef0"/>
    </linearGradient>
    <filter id="Path_18" x="382.361" y="804.779" width="483.854" height="466.047" filterUnits="userSpaceOnUse">
      <feOffset dy="-4" input="SourceAlpha"/>
      <feGaussianBlur stdDeviation="3" result="blur-2"/>
      <feFlood flood-opacity="0.161"/>
      <feComposite operator="in" in2="blur-2"/>
      <feComposite in="SourceGraphic"/>
    </filter>
  </defs>
  <g id="Requin_" data-name="Requin " transform="translate(10900.867 -1858.651)">
    <g id="RequinLogo" transform="translate(-10891.867 1859.651)">
      <g id="Component_12_1" data-name="Component 12 – 1">
        <g transform="matrix(1, 0, 0, 1, -9, -1)" filter="url(#Path_17)">
          <path id="Path_17-2" data-name="Path 17" d="M-11693.353,3285.985s270.58-58.07,440.889,46.787c77.156,47.5,143.264,126.842,186.327,203.382,49.55,88.024,71.348,169.055,71.348,169.055s18.66-51.728,24.895-131.53c5.635-72.077-3.826-169.612-40.207-250.592-74.1-164.928-282.085-284.171-282.085-284.171s-33.864-70.075-37.272-135.85-7.317-85.873,17.75-139.457,22.984-51.171,82.511-74.882c27.673-11.027,85.546-33.014,125.269-25.156,17.756,3.514,69.826,24.834,69.826,24.834s-6.947,1.4,10.575,8.677c31.687,13.163,31.356,12.835,70.51,32.787s65.263,38.828,65.323,42.4-4.462,11.3-4.462,11.3-37.872,57.686-92.541,100.486c-54.687,42.8-137.97,61.682-137.97,61.682s66.437,51.148,178.368,46.721,97.524-83.677,281.971-57.375,272.443,127.037,455.813,162.584c53.382,10.345,93.685,9.176,134.216,7.8,90.247-3.032,142.713-26.231,142.713-26.231s-40.111-570.981-350.354-890.576c-187.741-193.4-421.917-315.141-649.235-367.676-86.158-19.918-198.072-23.79-267.694-25.631,0,0-211.923,7.651-362.606,48.239-222.582,59.95-377.9,193.651-377.9,193.651s171.272-13.36,279.072-13.36,138.545,5.882,138.545,5.882-65.125,70.936-109.524,185.714c-34.572,89.375-50.094,210.938-50.094,325.329,0,254.768,179.291,521.5,179.291,521.5s-85.385,41.168-130.215,97.329C-11675.105,3215.805-11693.353,3285.985-11693.353,3285.985Z" transform="translate(11946.37 -1794.36)" fill="url(#linear-gradient)"/>
        </g>
        <g transform="matrix(1, 0, 0, 1, -9, -1)" filter="url(#Path_18)">
          <path id="Path_18-2" data-name="Path 18" d="M-11492.077,1918.173c18.4-12.017,57.347-28.778,57.347-28.778s52.04-4.772,80.354-4.707c112.818.247,238.3,54.255,238.3,54.255s-23.829-5.412-75.678,4.079c-8.2,1.495-31.787,7.159-42.781,10.14a172.05,172.05,0,0,0-37.076,15.071c-22.631,12.31-47.332,34.033-61.189,57.307-9.947,16.7-21.775,48.116-25.656,72.57-14.84,93.06,36.681,206.71,36.681,206.71l-204.191,27.914s-46.083-50.671-52.819-99.7C-11591.141,2143.188-11568.042,1967.772-11492.077,1918.173Z" transform="translate(11973.29 -1066.91)" fill="url(#linear-gradient-2)"/>
        </g>
        <path id="Path_20" data-name="Path 20" d="M-9962.3,2363.357s-20.559,4.6-59.1,7.9a747.911,747.911,0,0,1-186.566-7.9c-136.072-23.442-297.487-93.771-297.487-93.771l-231.452-142.417s-232.451-145.428-336.957-191.642c-219.091-96.883-307.967-53.479-307.967-53.479s-125.047,30.932-172.285,142.3-21.043,306.983-21.043,306.983-16.385-253.324,100.141-324.26,370.3,36.72,370.3,36.72,64.538,25.366,123.382,56.014,112.908,74.682,112.908,74.682,25.5,18.5,60.178,44.021c10.528,7.747,22.686,15.194,37.268,25.789,11.63,8.449,25.889,20.122,42.219,30.2,15.756,9.726,29.146,19.966,43.561,30.511,2.762,2.048,6.372,5.9,12.834,9.089,46.388,22.887,94.11,40.345,94.11,40.345s29.11,12.336,71.82,28.788c19.726,7.6,45.657,16.5,70.832,26.154,71.342,27.355,187.538,57.167,187.538,57.167s87.918,17.333,169.679,12.631,125.729-28.8,125.729-28.8l-4.048-46.7Z" transform="translate(11960.585 -1166.662)" fill="#4adede"/>
      </g>
    </g>
  </g>
</svg>
